<mxfile host="app.diagrams.net" modified="2022-09-27T14:28:37.389Z" agent="5.0 (Windows NT 10.0; Win64; x64) AppleWebKit/537.36 (KHTML, like Gecko) Chrome/105.0.0.0 Safari/537.36" etag="X5yzOTQmm-gBqA7FIaTZ" version="20.3.3" type="github" pages="4">
  <diagram id="RXQFur0JLAsoUZqeeeEs" name="Purchase Groceries">
    <mxGraphModel dx="1422" dy="794" grid="1" gridSize="10" guides="1" tooltips="1" connect="1" arrows="1" fold="1" page="1" pageScale="1" pageWidth="1100" pageHeight="850" math="0" shadow="0">
      <root>
        <mxCell id="0" />
        <mxCell id="1" parent="0" />
        <mxCell id="0z7G8caczZ7H2pfrw97W-1" style="edgeStyle=orthogonalEdgeStyle;rounded=0;orthogonalLoop=1;jettySize=auto;html=1;exitX=1;exitY=0.5;exitDx=0;exitDy=0;entryX=0;entryY=0.5;entryDx=0;entryDy=0;fontFamily=Times New Roman;fontSize=16;" edge="1" parent="1" source="0z7G8caczZ7H2pfrw97W-2" target="0z7G8caczZ7H2pfrw97W-14">
          <mxGeometry relative="1" as="geometry" />
        </mxCell>
        <mxCell id="0z7G8caczZ7H2pfrw97W-2" value="" style="ellipse;fillColor=#000000;strokeColor=none;fontFamily=Times New Roman;fontSize=16;" vertex="1" parent="1">
          <mxGeometry x="-0.002897196261699264" y="152.04267605633802" width="23.551401869158877" height="24.084507042253524" as="geometry" />
        </mxCell>
        <mxCell id="0z7G8caczZ7H2pfrw97W-3" value="" style="ellipse;html=1;shape=endState;fillColor=strokeColor;fontFamily=Times New Roman;fontSize=16;rotation=-90;" vertex="1" parent="1">
          <mxGeometry x="1400.001495327103" y="146.19549295774658" width="23.551401869158877" height="24.084507042253524" as="geometry" />
        </mxCell>
        <mxCell id="0z7G8caczZ7H2pfrw97W-4" style="edgeStyle=orthogonalEdgeStyle;rounded=0;orthogonalLoop=1;jettySize=auto;html=1;exitX=1;exitY=0.5;exitDx=0;exitDy=0;entryX=0.5;entryY=0;entryDx=0;entryDy=0;fontFamily=Times New Roman;fontSize=16;" edge="1" parent="1" source="0z7G8caczZ7H2pfrw97W-26" target="0z7G8caczZ7H2pfrw97W-3">
          <mxGeometry relative="1" as="geometry" />
        </mxCell>
        <mxCell id="0z7G8caczZ7H2pfrw97W-5" value="Purchase Groceries" style="swimlane;childLayout=stackLayout;resizeParent=1;resizeParentMax=0;horizontal=0;startSize=20;horizontalStack=0;" vertex="1" parent="1">
          <mxGeometry x="30" y="90" width="1340" height="540.28" as="geometry" />
        </mxCell>
        <mxCell id="0z7G8caczZ7H2pfrw97W-6" value="Customer" style="swimlane;startSize=20;horizontal=0;" vertex="1" parent="0z7G8caczZ7H2pfrw97W-5">
          <mxGeometry x="20" width="1320" height="180.28" as="geometry" />
        </mxCell>
        <mxCell id="0z7G8caczZ7H2pfrw97W-7" value="" style="html=1;points=[[0,0.5,0,0,0],[1,0.33,0,0,0],[1,0.67,0,0,0]];perimeter=orthogonalPerimeter;fillColor=#000000;strokeColor=none;fontFamily=Times New Roman;fontSize=16;" vertex="1" parent="0z7G8caczZ7H2pfrw97W-6">
          <mxGeometry x="590.003831775701" y="3.803098591549303" width="3.925233644859813" height="136.47887323943664" as="geometry" />
        </mxCell>
        <mxCell id="0z7G8caczZ7H2pfrw97W-8" value="" style="html=1;perimeter=orthogonalPerimeter;fillColor=#000000;strokeColor=none;fontFamily=Times New Roman;fontSize=16;" vertex="1" parent="0z7G8caczZ7H2pfrw97W-6">
          <mxGeometry x="970.0011214953271" y="0.0030985915493033644" width="3.925233644859813" height="136.47887323943664" as="geometry" />
        </mxCell>
        <mxCell id="0z7G8caczZ7H2pfrw97W-9" value="Makes Payment" style="whiteSpace=wrap;html=1;rounded=1;fontSize=16;fillColor=#fff2cc;strokeColor=#d6b656;fontFamily=Times New Roman;" vertex="1" parent="0z7G8caczZ7H2pfrw97W-6">
          <mxGeometry x="710" y="48.18" width="110.01" height="58.17" as="geometry" />
        </mxCell>
        <mxCell id="0z7G8caczZ7H2pfrw97W-10" style="edgeStyle=orthogonalEdgeStyle;rounded=0;orthogonalLoop=1;jettySize=auto;html=1;exitX=1;exitY=0.5;exitDx=0;exitDy=0;entryX=0;entryY=0.25;entryDx=0;entryDy=0;fontFamily=Times New Roman;fontSize=16;" edge="1" parent="0z7G8caczZ7H2pfrw97W-6" source="0z7G8caczZ7H2pfrw97W-9" target="0z7G8caczZ7H2pfrw97W-8">
          <mxGeometry relative="1" as="geometry" />
        </mxCell>
        <mxCell id="0z7G8caczZ7H2pfrw97W-11" style="edgeStyle=orthogonalEdgeStyle;rounded=0;orthogonalLoop=1;jettySize=auto;html=1;exitX=1;exitY=0.5;exitDx=0;exitDy=0;entryX=0;entryY=0.5;entryDx=0;entryDy=0;" edge="1" parent="0z7G8caczZ7H2pfrw97W-6" source="0z7G8caczZ7H2pfrw97W-12" target="0z7G8caczZ7H2pfrw97W-26">
          <mxGeometry relative="1" as="geometry" />
        </mxCell>
        <mxCell id="0z7G8caczZ7H2pfrw97W-12" value="" style="rhombus;whiteSpace=wrap;html=1;fontSize=16;fontFamily=Times New Roman;fillColor=#fff2cc;strokeColor=#d6b656;" vertex="1" parent="0z7G8caczZ7H2pfrw97W-6">
          <mxGeometry x="1080.004859813084" y="28.100422535211237" width="78.50467289719626" height="80.28169014084507" as="geometry" />
        </mxCell>
        <mxCell id="0z7G8caczZ7H2pfrw97W-13" value="" style="edgeStyle=orthogonalEdgeStyle;rounded=0;orthogonalLoop=1;jettySize=auto;html=1;entryX=0.5;entryY=0;entryDx=0;entryDy=0;" edge="1" parent="0z7G8caczZ7H2pfrw97W-6" source="0z7G8caczZ7H2pfrw97W-8" target="0z7G8caczZ7H2pfrw97W-12">
          <mxGeometry relative="1" as="geometry">
            <Array as="points">
              <mxPoint x="1027" y="68" />
              <mxPoint x="1027" y="10" />
              <mxPoint x="1119" y="10" />
            </Array>
          </mxGeometry>
        </mxCell>
        <mxCell id="0z7G8caczZ7H2pfrw97W-14" value="Enter Store" style="rounded=1;whiteSpace=wrap;html=1;fontSize=16;fillColor=#fff2cc;strokeColor=#d6b656;fontFamily=Times New Roman;" vertex="1" parent="0z7G8caczZ7H2pfrw97W-6">
          <mxGeometry x="40" y="0.008028169014078657" width="94.2056074766355" height="48.16901408450705" as="geometry" />
        </mxCell>
        <mxCell id="0z7G8caczZ7H2pfrw97W-15" value="Check for sufficient funds" style="whiteSpace=wrap;html=1;fontSize=16;fontFamily=Times New Roman;fillColor=#fff2cc;strokeColor=#d6b656;rounded=1;" vertex="1" parent="0z7G8caczZ7H2pfrw97W-6">
          <mxGeometry x="40" y="88.31239436619717" width="94.2056074766355" height="48.16901408450705" as="geometry" />
        </mxCell>
        <mxCell id="0z7G8caczZ7H2pfrw97W-16" value="" style="edgeStyle=orthogonalEdgeStyle;rounded=0;orthogonalLoop=1;jettySize=auto;html=1;fontFamily=Times New Roman;fontSize=16;exitX=0.5;exitY=1;exitDx=0;exitDy=0;" edge="1" parent="0z7G8caczZ7H2pfrw97W-6" source="0z7G8caczZ7H2pfrw97W-14" target="0z7G8caczZ7H2pfrw97W-15">
          <mxGeometry relative="1" as="geometry" />
        </mxCell>
        <mxCell id="0z7G8caczZ7H2pfrw97W-17" value="Sufficient Funds" style="rhombus;whiteSpace=wrap;html=1;fontSize=16;fontFamily=Times New Roman;fillColor=#fff2cc;strokeColor=#d6b656;rounded=1;arcSize=0;" vertex="1" parent="0z7G8caczZ7H2pfrw97W-6">
          <mxGeometry x="173.82841121495326" y="68.16605633802816" width="78.50467289719626" height="80.28169014084507" as="geometry" />
        </mxCell>
        <mxCell id="0z7G8caczZ7H2pfrw97W-18" value="" style="edgeStyle=orthogonalEdgeStyle;rounded=0;orthogonalLoop=1;jettySize=auto;html=1;fontFamily=Times New Roman;fontSize=16;" edge="1" parent="0z7G8caczZ7H2pfrw97W-6" source="0z7G8caczZ7H2pfrw97W-15" target="0z7G8caczZ7H2pfrw97W-17">
          <mxGeometry relative="1" as="geometry" />
        </mxCell>
        <mxCell id="0z7G8caczZ7H2pfrw97W-19" style="edgeStyle=orthogonalEdgeStyle;rounded=0;orthogonalLoop=1;jettySize=auto;html=1;exitX=1;exitY=0.5;exitDx=0;exitDy=0;entryX=0;entryY=0.5;entryDx=0;entryDy=0;" edge="1" parent="0z7G8caczZ7H2pfrw97W-6" source="0z7G8caczZ7H2pfrw97W-20" target="0z7G8caczZ7H2pfrw97W-27">
          <mxGeometry relative="1" as="geometry" />
        </mxCell>
        <mxCell id="0z7G8caczZ7H2pfrw97W-20" value="Walk Through store and get items" style="whiteSpace=wrap;html=1;rounded=1;fontSize=16;fillColor=#fff2cc;strokeColor=#d6b656;fontFamily=Times New Roman;" vertex="1" parent="0z7G8caczZ7H2pfrw97W-6">
          <mxGeometry x="339.99794392523364" y="80" width="94.2056074766355" height="48.16901408450705" as="geometry" />
        </mxCell>
        <mxCell id="0z7G8caczZ7H2pfrw97W-21" value="Get Cart or Basket" style="whiteSpace=wrap;html=1;rounded=1;fontSize=16;fillColor=#fff2cc;strokeColor=#d6b656;fontFamily=Times New Roman;" vertex="1" parent="0z7G8caczZ7H2pfrw97W-6">
          <mxGeometry x="269.99794392523364" y="0.00802816901408221" width="94.2056074766355" height="48.16901408450705" as="geometry" />
        </mxCell>
        <mxCell id="0z7G8caczZ7H2pfrw97W-22" value="" style="edgeStyle=orthogonalEdgeStyle;rounded=0;orthogonalLoop=1;jettySize=auto;html=1;fontSize=16;fillColor=#fff2cc;strokeColor=#d6b656;fontFamily=Times New Roman;" edge="1" parent="0z7G8caczZ7H2pfrw97W-6" source="0z7G8caczZ7H2pfrw97W-21" target="0z7G8caczZ7H2pfrw97W-20">
          <mxGeometry relative="1" as="geometry">
            <Array as="points">
              <mxPoint x="317" y="60" />
              <mxPoint x="407" y="60" />
            </Array>
          </mxGeometry>
        </mxCell>
        <mxCell id="0z7G8caczZ7H2pfrw97W-23" value="[Yes]" style="edgeStyle=orthogonalEdgeStyle;rounded=0;orthogonalLoop=1;jettySize=auto;html=1;fontSize=16;fillColor=#fff2cc;strokeColor=#d6b656;fontFamily=Times New Roman;exitX=0.5;exitY=0;exitDx=0;exitDy=0;entryX=0;entryY=0.5;entryDx=0;entryDy=0;" edge="1" parent="0z7G8caczZ7H2pfrw97W-6" source="0z7G8caczZ7H2pfrw97W-17" target="0z7G8caczZ7H2pfrw97W-21">
          <mxGeometry y="-20" relative="1" as="geometry">
            <Array as="points" />
            <mxPoint as="offset" />
          </mxGeometry>
        </mxCell>
        <mxCell id="0z7G8caczZ7H2pfrw97W-24" value="" style="shape=sumEllipse;perimeter=ellipsePerimeter;whiteSpace=wrap;html=1;backgroundOutline=1;fontFamily=Times New Roman;fontSize=16;" vertex="1" parent="0z7G8caczZ7H2pfrw97W-6">
          <mxGeometry x="305.325046728972" y="96.2612676056338" width="23.551401869158877" height="24.084507042253524" as="geometry" />
        </mxCell>
        <mxCell id="0z7G8caczZ7H2pfrw97W-25" value="[No]" style="edgeStyle=orthogonalEdgeStyle;rounded=0;orthogonalLoop=1;jettySize=auto;html=1;exitX=1;exitY=0.5;exitDx=0;exitDy=0;fontFamily=Times New Roman;fontSize=16;" edge="1" parent="0z7G8caczZ7H2pfrw97W-6" source="0z7G8caczZ7H2pfrw97W-17" target="0z7G8caczZ7H2pfrw97W-24">
          <mxGeometry x="-0.3333" y="-20" relative="1" as="geometry">
            <mxPoint as="offset" />
          </mxGeometry>
        </mxCell>
        <mxCell id="0z7G8caczZ7H2pfrw97W-26" value="Exit Store" style="whiteSpace=wrap;html=1;rounded=1;fontSize=16;fillColor=#fff2cc;strokeColor=#d6b656;fontFamily=Times New Roman;" vertex="1" parent="0z7G8caczZ7H2pfrw97W-6">
          <mxGeometry x="1190" y="50.07" width="68.97" height="36.34" as="geometry" />
        </mxCell>
        <mxCell id="0z7G8caczZ7H2pfrw97W-27" value="# of items to purchase" style="rhombus;whiteSpace=wrap;html=1;fontSize=16;fontFamily=Times New Roman;fillColor=#fff2cc;strokeColor=#d6b656;rounded=1;arcSize=0;" vertex="1" parent="0z7G8caczZ7H2pfrw97W-6">
          <mxGeometry x="460" y="58.17000000000001" width="110" height="90.28" as="geometry" />
        </mxCell>
        <mxCell id="0z7G8caczZ7H2pfrw97W-28" style="edgeStyle=orthogonalEdgeStyle;rounded=0;orthogonalLoop=1;jettySize=auto;html=1;exitX=0.5;exitY=1;exitDx=0;exitDy=0;fontFamily=Times New Roman;fontSize=16;entryX=0;entryY=0.5;entryDx=0;entryDy=0;" edge="1" parent="0z7G8caczZ7H2pfrw97W-6" source="0z7G8caczZ7H2pfrw97W-27" target="0z7G8caczZ7H2pfrw97W-12">
          <mxGeometry relative="1" as="geometry">
            <mxPoint x="852.8971962616822" y="222.25352112676057" as="targetPoint" />
            <Array as="points">
              <mxPoint x="515" y="160" />
              <mxPoint x="1060" y="160" />
              <mxPoint x="1060" y="68" />
            </Array>
          </mxGeometry>
        </mxCell>
        <mxCell id="0z7G8caczZ7H2pfrw97W-29" value="[=0]" style="edgeLabel;html=1;align=center;verticalAlign=middle;resizable=0;points=[];fontSize=16;fontFamily=Times New Roman;" vertex="1" connectable="0" parent="0z7G8caczZ7H2pfrw97W-28">
          <mxGeometry x="-0.8209" y="-1" relative="1" as="geometry">
            <mxPoint x="-23" y="9" as="offset" />
          </mxGeometry>
        </mxCell>
        <mxCell id="0z7G8caczZ7H2pfrw97W-30" value="[&amp;gt;=1]" style="edgeStyle=orthogonalEdgeStyle;rounded=0;orthogonalLoop=1;jettySize=auto;html=1;exitX=0.5;exitY=0;exitDx=0;exitDy=0;entryX=0;entryY=0.5;entryDx=0;entryDy=0;entryPerimeter=0;" edge="1" parent="0z7G8caczZ7H2pfrw97W-6" source="0z7G8caczZ7H2pfrw97W-27" target="0z7G8caczZ7H2pfrw97W-7">
          <mxGeometry x="-0.3878" y="20" relative="1" as="geometry">
            <Array as="points">
              <mxPoint x="515" y="30" />
              <mxPoint x="570" y="30" />
              <mxPoint x="570" y="72" />
            </Array>
            <mxPoint as="offset" />
          </mxGeometry>
        </mxCell>
        <mxCell id="0z7G8caczZ7H2pfrw97W-31" value="Cashier" style="swimlane;startSize=20;horizontal=0;dashed=1;dashPattern=1 2;" vertex="1" parent="0z7G8caczZ7H2pfrw97W-5">
          <mxGeometry x="20" y="180.28" width="1320" height="240.00000000000003" as="geometry" />
        </mxCell>
        <mxCell id="0z7G8caczZ7H2pfrw97W-32" value="" style="html=1;dashed=1;rounded=1;absoluteArcSize=1;arcSize=20;verticalAlign=top;align=left;spacingTop=20;spacingLeft=20;" vertex="1" parent="0z7G8caczZ7H2pfrw97W-31">
          <mxGeometry x="640" y="10" width="220" height="220" as="geometry" />
        </mxCell>
        <mxCell id="0z7G8caczZ7H2pfrw97W-33" style="edgeStyle=orthogonalEdgeStyle;rounded=0;orthogonalLoop=1;jettySize=auto;html=1;exitX=0.25;exitY=1;exitDx=0;exitDy=0;entryX=0;entryY=0.5;entryDx=0;entryDy=0;strokeColor=#000000;" edge="1" parent="0z7G8caczZ7H2pfrw97W-32" source="0z7G8caczZ7H2pfrw97W-34" target="0z7G8caczZ7H2pfrw97W-45">
          <mxGeometry relative="1" as="geometry" />
        </mxCell>
        <mxCell id="0z7G8caczZ7H2pfrw97W-34" value="" style="group;resizeWidth=0;resizeHeight=0;" vertex="1" parent="0z7G8caczZ7H2pfrw97W-32">
          <mxGeometry width="80" height="20" relative="1" as="geometry">
            <mxPoint x="30" y="-10" as="offset" />
          </mxGeometry>
        </mxCell>
        <mxCell id="0z7G8caczZ7H2pfrw97W-35" value="" style="resizeWidth=0;resizeHeight=0;points=[[0,0],[0.5,0],[1,0]];" vertex="1" parent="0z7G8caczZ7H2pfrw97W-34">
          <mxGeometry width="20" height="20" relative="1" as="geometry">
            <mxPoint as="offset" />
          </mxGeometry>
        </mxCell>
        <mxCell id="0z7G8caczZ7H2pfrw97W-36" value="" style="resizeWidth=0;resizeHeight=0;points=[[0,0],[0.5,0],[1,0]];" vertex="1" parent="0z7G8caczZ7H2pfrw97W-34">
          <mxGeometry width="20" height="20" relative="1" as="geometry">
            <mxPoint x="20" as="offset" />
          </mxGeometry>
        </mxCell>
        <mxCell id="0z7G8caczZ7H2pfrw97W-37" value="" style="resizeWidth=0;resizeHeight=0;points=[[0,0],[0.5,0],[1,0]];" vertex="1" parent="0z7G8caczZ7H2pfrw97W-34">
          <mxGeometry width="20" height="20" relative="1" as="geometry">
            <mxPoint x="40" as="offset" />
          </mxGeometry>
        </mxCell>
        <mxCell id="0z7G8caczZ7H2pfrw97W-38" value="" style="resizeWidth=0;resizeHeight=0;points=[[0,0],[0.5,0],[1,0]];" vertex="1" parent="0z7G8caczZ7H2pfrw97W-34">
          <mxGeometry width="20" height="20" relative="1" as="geometry">
            <mxPoint x="60" as="offset" />
          </mxGeometry>
        </mxCell>
        <mxCell id="0z7G8caczZ7H2pfrw97W-39" value="" style="group;resizeWidth=0;resizeHeight=0;" vertex="1" parent="0z7G8caczZ7H2pfrw97W-32">
          <mxGeometry x="1" y="1" width="20" height="80" relative="1" as="geometry">
            <mxPoint x="-10" y="-110" as="offset" />
          </mxGeometry>
        </mxCell>
        <mxCell id="0z7G8caczZ7H2pfrw97W-40" value="" style="resizeWidth=0;resizeHeight=0;points=[[0,0],[0.5,0],[1,0]];" vertex="1" parent="0z7G8caczZ7H2pfrw97W-39">
          <mxGeometry width="20" height="20" relative="1" as="geometry">
            <mxPoint as="offset" />
          </mxGeometry>
        </mxCell>
        <mxCell id="0z7G8caczZ7H2pfrw97W-41" value="" style="resizeWidth=0;resizeHeight=0;points=[[0,0],[0.5,0],[1,0]];" vertex="1" parent="0z7G8caczZ7H2pfrw97W-39">
          <mxGeometry width="20" height="20" relative="1" as="geometry">
            <mxPoint y="20" as="offset" />
          </mxGeometry>
        </mxCell>
        <mxCell id="0z7G8caczZ7H2pfrw97W-42" value="" style="resizeWidth=0;resizeHeight=0;points=[[0,0],[0.5,0],[1,0]];" vertex="1" parent="0z7G8caczZ7H2pfrw97W-39">
          <mxGeometry width="20" height="20" relative="1" as="geometry">
            <mxPoint y="40" as="offset" />
          </mxGeometry>
        </mxCell>
        <mxCell id="0z7G8caczZ7H2pfrw97W-43" value="" style="resizeWidth=0;resizeHeight=0;points=[[0,0],[0.5,0],[1,0]];" vertex="1" parent="0z7G8caczZ7H2pfrw97W-39">
          <mxGeometry width="20" height="20" relative="1" as="geometry">
            <mxPoint y="60" as="offset" />
          </mxGeometry>
        </mxCell>
        <mxCell id="0z7G8caczZ7H2pfrw97W-44" style="edgeStyle=orthogonalEdgeStyle;rounded=0;orthogonalLoop=1;jettySize=auto;html=1;exitX=1;exitY=0.5;exitDx=0;exitDy=0;entryX=0;entryY=0.5;entryDx=0;entryDy=0;strokeColor=#000000;" edge="1" parent="0z7G8caczZ7H2pfrw97W-32" source="0z7G8caczZ7H2pfrw97W-45" target="0z7G8caczZ7H2pfrw97W-39">
          <mxGeometry relative="1" as="geometry" />
        </mxCell>
        <mxCell id="0z7G8caczZ7H2pfrw97W-45" value="Scans items for payment" style="whiteSpace=wrap;html=1;rounded=1;fontSize=16;fillColor=#f8cecc;strokeColor=#b85450;fontFamily=Times New Roman;" vertex="1" parent="0z7G8caczZ7H2pfrw97W-32">
          <mxGeometry x="70" y="60.72" width="94.21" height="49.28" as="geometry" />
        </mxCell>
        <mxCell id="0z7G8caczZ7H2pfrw97W-46" value="Bagger" style="swimlane;startSize=20;horizontal=0;" vertex="1" parent="0z7G8caczZ7H2pfrw97W-5">
          <mxGeometry x="20" y="420.28000000000003" width="1320" height="120" as="geometry" />
        </mxCell>
        <mxCell id="0z7G8caczZ7H2pfrw97W-47" value="Bag Items" style="rounded=1;whiteSpace=wrap;html=1;fontFamily=Times New Roman;fontSize=16;fillColor=#dae8fc;strokeColor=#6c8ebf;" vertex="1" parent="0z7G8caczZ7H2pfrw97W-46">
          <mxGeometry x="709.9999065420561" y="35.91239436619716" width="94.2056074766355" height="48.16901408450705" as="geometry" />
        </mxCell>
        <mxCell id="0z7G8caczZ7H2pfrw97W-48" style="edgeStyle=orthogonalEdgeStyle;rounded=0;orthogonalLoop=1;jettySize=auto;html=1;exitX=1;exitY=0.5;exitDx=0;exitDy=0;entryX=0;entryY=0.676;entryDx=0;entryDy=0;fontFamily=Times New Roman;fontSize=16;entryPerimeter=0;" edge="1" parent="0z7G8caczZ7H2pfrw97W-5" source="0z7G8caczZ7H2pfrw97W-47" target="0z7G8caczZ7H2pfrw97W-8">
          <mxGeometry relative="1" as="geometry">
            <Array as="points">
              <mxPoint x="950" y="480" />
              <mxPoint x="950" y="92" />
            </Array>
          </mxGeometry>
        </mxCell>
        <mxCell id="0z7G8caczZ7H2pfrw97W-49" value="" style="edgeStyle=orthogonalEdgeStyle;rounded=0;orthogonalLoop=1;jettySize=auto;html=1;fontSize=16;fillColor=#fff2cc;strokeColor=#000000;fontFamily=Times New Roman;exitX=1;exitY=0;exitDx=0;exitDy=0;" edge="1" parent="0z7G8caczZ7H2pfrw97W-5" source="0z7G8caczZ7H2pfrw97W-42" target="0z7G8caczZ7H2pfrw97W-9">
          <mxGeometry relative="1" as="geometry">
            <Array as="points">
              <mxPoint x="930" y="340" />
              <mxPoint x="930" y="170" />
              <mxPoint x="785" y="170" />
            </Array>
          </mxGeometry>
        </mxCell>
        <mxCell id="0z7G8caczZ7H2pfrw97W-50" style="edgeStyle=orthogonalEdgeStyle;rounded=0;orthogonalLoop=1;jettySize=auto;html=1;exitX=1;exitY=0.33;exitDx=0;exitDy=0;exitPerimeter=0;entryX=1;entryY=0;entryDx=0;entryDy=0;" edge="1" parent="0z7G8caczZ7H2pfrw97W-5" source="0z7G8caczZ7H2pfrw97W-7" target="0z7G8caczZ7H2pfrw97W-35">
          <mxGeometry relative="1" as="geometry" />
        </mxCell>
        <mxCell id="0z7G8caczZ7H2pfrw97W-51" style="edgeStyle=orthogonalEdgeStyle;rounded=0;orthogonalLoop=1;jettySize=auto;html=1;exitX=1;exitY=0.67;exitDx=0;exitDy=0;exitPerimeter=0;entryX=0;entryY=0.5;entryDx=0;entryDy=0;" edge="1" parent="0z7G8caczZ7H2pfrw97W-5" source="0z7G8caczZ7H2pfrw97W-7" target="0z7G8caczZ7H2pfrw97W-47">
          <mxGeometry relative="1" as="geometry">
            <Array as="points">
              <mxPoint x="630" y="95" />
              <mxPoint x="630" y="480" />
            </Array>
          </mxGeometry>
        </mxCell>
      </root>
    </mxGraphModel>
  </diagram>
  <diagram id="ZfKNPwVAdrzFTU74qhph" name="Make Payment">
    <mxGraphModel dx="1185" dy="662" grid="1" gridSize="10" guides="1" tooltips="1" connect="1" arrows="1" fold="1" page="1" pageScale="1" pageWidth="1100" pageHeight="850" math="0" shadow="0">
      <root>
        <mxCell id="0" />
        <mxCell id="1" parent="0" />
        <mxCell id="2ucF-1oo7JGU_lj_R-2m-6" value="" style="endArrow=classic;html=1;rounded=0;entryX=0;entryY=0.5;entryDx=0;entryDy=0;" parent="1" target="2ucF-1oo7JGU_lj_R-2m-5" edge="1">
          <mxGeometry width="50" height="50" relative="1" as="geometry">
            <mxPoint x="70" y="690" as="sourcePoint" />
            <mxPoint x="380" y="480" as="targetPoint" />
          </mxGeometry>
        </mxCell>
        <mxCell id="sRZtuT86F7oAawYKFe2H-3" value="" style="endArrow=classic;html=1;rounded=0;exitX=1;exitY=0.5;exitDx=0;exitDy=0;" edge="1" parent="1" source="sRZtuT86F7oAawYKFe2H-1">
          <mxGeometry width="50" height="50" relative="1" as="geometry">
            <mxPoint x="1130" y="210" as="sourcePoint" />
            <mxPoint x="1220" y="180" as="targetPoint" />
          </mxGeometry>
        </mxCell>
        <mxCell id="2ucF-1oo7JGU_lj_R-2m-1" value="Make Payment" style="swimlane;childLayout=stackLayout;resizeParent=1;resizeParentMax=0;horizontal=0;startSize=20;horizontalStack=0;" parent="1" vertex="1">
          <mxGeometry x="90" y="130" width="1000" height="640" as="geometry" />
        </mxCell>
        <mxCell id="2ucF-1oo7JGU_lj_R-2m-2" value="Customer    " style="swimlane;startSize=20;horizontal=0;" parent="2ucF-1oo7JGU_lj_R-2m-1" vertex="1">
          <mxGeometry x="20" width="980" height="320" as="geometry" />
        </mxCell>
        <mxCell id="2ucF-1oo7JGU_lj_R-2m-11" value="Select payment method" style="whiteSpace=wrap;html=1;fontFamily=Georgia;rounded=1;arcSize=23;fontStyle=0;" parent="2ucF-1oo7JGU_lj_R-2m-2" vertex="1">
          <mxGeometry x="40" y="20" width="120" height="60" as="geometry" />
        </mxCell>
        <mxCell id="2ucF-1oo7JGU_lj_R-2m-13" value="" style="rhombus;whiteSpace=wrap;html=1;fontFamily=Georgia;rounded=1;arcSize=0;fontStyle=0;" parent="2ucF-1oo7JGU_lj_R-2m-2" vertex="1">
          <mxGeometry x="240" y="10" width="80" height="80" as="geometry" />
        </mxCell>
        <mxCell id="2ucF-1oo7JGU_lj_R-2m-14" value="" style="edgeStyle=orthogonalEdgeStyle;rounded=0;orthogonalLoop=1;jettySize=auto;html=1;fontFamily=Georgia;" parent="2ucF-1oo7JGU_lj_R-2m-2" source="2ucF-1oo7JGU_lj_R-2m-11" target="2ucF-1oo7JGU_lj_R-2m-13" edge="1">
          <mxGeometry relative="1" as="geometry" />
        </mxCell>
        <mxCell id="sRZtuT86F7oAawYKFe2H-1" value="" style="rhombus;whiteSpace=wrap;html=1;fontFamily=Georgia;rounded=1;arcSize=0;fontStyle=0;" vertex="1" parent="2ucF-1oo7JGU_lj_R-2m-2">
          <mxGeometry x="880" y="10" width="80" height="80" as="geometry" />
        </mxCell>
        <mxCell id="sRZtuT86F7oAawYKFe2H-6" value="Hand cash to cashier" style="whiteSpace=wrap;html=1;fontFamily=Georgia;rounded=1;arcSize=23;fontStyle=0;" vertex="1" parent="2ucF-1oo7JGU_lj_R-2m-2">
          <mxGeometry x="380" y="110" width="120" height="60" as="geometry" />
        </mxCell>
        <mxCell id="sRZtuT86F7oAawYKFe2H-7" value="[Cash]" style="edgeStyle=orthogonalEdgeStyle;rounded=0;orthogonalLoop=1;jettySize=auto;html=1;" edge="1" parent="2ucF-1oo7JGU_lj_R-2m-2" source="2ucF-1oo7JGU_lj_R-2m-13" target="sRZtuT86F7oAawYKFe2H-6">
          <mxGeometry x="0.6" y="10" relative="1" as="geometry">
            <Array as="points">
              <mxPoint x="280" y="140" />
            </Array>
            <mxPoint as="offset" />
          </mxGeometry>
        </mxCell>
        <mxCell id="sRZtuT86F7oAawYKFe2H-4" value="Enters card into reader" style="whiteSpace=wrap;html=1;fontFamily=Georgia;rounded=1;arcSize=20;fontStyle=0;" vertex="1" parent="2ucF-1oo7JGU_lj_R-2m-2">
          <mxGeometry x="380" y="20" width="120" height="60" as="geometry" />
        </mxCell>
        <mxCell id="sRZtuT86F7oAawYKFe2H-5" value="[Credit]" style="edgeStyle=orthogonalEdgeStyle;rounded=0;orthogonalLoop=1;jettySize=auto;html=1;" edge="1" parent="2ucF-1oo7JGU_lj_R-2m-2" source="2ucF-1oo7JGU_lj_R-2m-13" target="sRZtuT86F7oAawYKFe2H-4">
          <mxGeometry y="10" relative="1" as="geometry">
            <mxPoint as="offset" />
          </mxGeometry>
        </mxCell>
        <mxCell id="sRZtuT86F7oAawYKFe2H-27" style="edgeStyle=orthogonalEdgeStyle;rounded=0;orthogonalLoop=1;jettySize=auto;html=1;entryX=0;entryY=0.5;entryDx=0;entryDy=0;" edge="1" parent="2ucF-1oo7JGU_lj_R-2m-2" source="sRZtuT86F7oAawYKFe2H-25" target="sRZtuT86F7oAawYKFe2H-1">
          <mxGeometry relative="1" as="geometry">
            <Array as="points">
              <mxPoint x="740" y="140" />
              <mxPoint x="740" y="50" />
            </Array>
          </mxGeometry>
        </mxCell>
        <mxCell id="sRZtuT86F7oAawYKFe2H-25" value="Receive change" style="rounded=1;whiteSpace=wrap;html=1;" vertex="1" parent="2ucF-1oo7JGU_lj_R-2m-2">
          <mxGeometry x="540" y="110" width="120" height="60" as="geometry" />
        </mxCell>
        <mxCell id="2ucF-1oo7JGU_lj_R-2m-9" value="Amount" style="whiteSpace=wrap;html=1;fontFamily=Georgia;rounded=1;arcSize=0;fontStyle=1" parent="2ucF-1oo7JGU_lj_R-2m-2" vertex="1">
          <mxGeometry x="40" y="290" width="120" height="60" as="geometry" />
        </mxCell>
        <mxCell id="2ucF-1oo7JGU_lj_R-2m-12" value="" style="edgeStyle=orthogonalEdgeStyle;rounded=0;orthogonalLoop=1;jettySize=auto;html=1;fontFamily=Georgia;" parent="2ucF-1oo7JGU_lj_R-2m-2" source="2ucF-1oo7JGU_lj_R-2m-9" target="2ucF-1oo7JGU_lj_R-2m-11" edge="1">
          <mxGeometry relative="1" as="geometry" />
        </mxCell>
        <mxCell id="sRZtuT86F7oAawYKFe2H-35" style="edgeStyle=orthogonalEdgeStyle;rounded=0;jumpStyle=arc;orthogonalLoop=1;jettySize=auto;html=1;entryX=0.5;entryY=1;entryDx=0;entryDy=0;" edge="1" parent="2ucF-1oo7JGU_lj_R-2m-2" source="sRZtuT86F7oAawYKFe2H-33" target="sRZtuT86F7oAawYKFe2H-1">
          <mxGeometry relative="1" as="geometry">
            <Array as="points">
              <mxPoint x="920" y="170" />
            </Array>
          </mxGeometry>
        </mxCell>
        <mxCell id="sRZtuT86F7oAawYKFe2H-33" value="Remove card from reader" style="rounded=1;whiteSpace=wrap;html=1;" vertex="1" parent="2ucF-1oo7JGU_lj_R-2m-2">
          <mxGeometry x="760" y="140" width="120" height="60" as="geometry" />
        </mxCell>
        <mxCell id="2ucF-1oo7JGU_lj_R-2m-3" value="Cashier" style="swimlane;startSize=20;horizontal=0;" parent="2ucF-1oo7JGU_lj_R-2m-1" vertex="1">
          <mxGeometry x="20" y="320" width="980" height="160" as="geometry" />
        </mxCell>
        <mxCell id="2ucF-1oo7JGU_lj_R-2m-7" value="Tell the customer the amount" style="whiteSpace=wrap;html=1;fontFamily=Georgia;rounded=1;" parent="2ucF-1oo7JGU_lj_R-2m-3" vertex="1">
          <mxGeometry x="40" y="70" width="120" height="60" as="geometry" />
        </mxCell>
        <mxCell id="sRZtuT86F7oAawYKFe2H-8" value="Cash" style="whiteSpace=wrap;html=1;fontFamily=Georgia;rounded=1;arcSize=0;fontStyle=0;" vertex="1" parent="2ucF-1oo7JGU_lj_R-2m-3">
          <mxGeometry x="380" y="-30" width="120" height="60" as="geometry" />
        </mxCell>
        <mxCell id="sRZtuT86F7oAawYKFe2H-10" value="Enter amount received" style="whiteSpace=wrap;html=1;fontFamily=Georgia;rounded=1;arcSize=17;fontStyle=0;" vertex="1" parent="2ucF-1oo7JGU_lj_R-2m-3">
          <mxGeometry x="380" y="70" width="120" height="60" as="geometry" />
        </mxCell>
        <mxCell id="sRZtuT86F7oAawYKFe2H-11" value="" style="edgeStyle=orthogonalEdgeStyle;rounded=0;orthogonalLoop=1;jettySize=auto;html=1;" edge="1" parent="2ucF-1oo7JGU_lj_R-2m-3" source="sRZtuT86F7oAawYKFe2H-8" target="sRZtuT86F7oAawYKFe2H-10">
          <mxGeometry relative="1" as="geometry" />
        </mxCell>
        <mxCell id="sRZtuT86F7oAawYKFe2H-20" value="" style="edgeStyle=orthogonalEdgeStyle;rounded=0;orthogonalLoop=1;jettySize=auto;html=1;" edge="1" parent="2ucF-1oo7JGU_lj_R-2m-3" source="sRZtuT86F7oAawYKFe2H-17">
          <mxGeometry relative="1" as="geometry">
            <mxPoint x="595" y="30" as="targetPoint" />
          </mxGeometry>
        </mxCell>
        <mxCell id="sRZtuT86F7oAawYKFe2H-17" value="Give customer change" style="whiteSpace=wrap;html=1;fontFamily=Georgia;rounded=1;arcSize=18;fontStyle=0;" vertex="1" parent="2ucF-1oo7JGU_lj_R-2m-3">
          <mxGeometry x="540" y="70" width="110" height="60" as="geometry" />
        </mxCell>
        <mxCell id="sRZtuT86F7oAawYKFe2H-19" value="Change" style="rounded=0;whiteSpace=wrap;html=1;" vertex="1" parent="2ucF-1oo7JGU_lj_R-2m-3">
          <mxGeometry x="540" y="-30" width="120" height="60" as="geometry" />
        </mxCell>
        <mxCell id="2ucF-1oo7JGU_lj_R-2m-4" value="POS System" style="swimlane;startSize=20;horizontal=0;" parent="2ucF-1oo7JGU_lj_R-2m-1" vertex="1">
          <mxGeometry x="20" y="480" width="980" height="160" as="geometry" />
        </mxCell>
        <mxCell id="2ucF-1oo7JGU_lj_R-2m-5" value="Show total amount" style="rounded=1;whiteSpace=wrap;html=1;fontFamily=Georgia;" parent="2ucF-1oo7JGU_lj_R-2m-4" vertex="1">
          <mxGeometry x="40" y="50" width="120" height="60" as="geometry" />
        </mxCell>
        <mxCell id="sRZtuT86F7oAawYKFe2H-15" value="" style="edgeStyle=orthogonalEdgeStyle;rounded=0;orthogonalLoop=1;jettySize=auto;html=1;dashed=1;dashPattern=1 1;" edge="1" parent="2ucF-1oo7JGU_lj_R-2m-4" source="sRZtuT86F7oAawYKFe2H-12" target="sRZtuT86F7oAawYKFe2H-14">
          <mxGeometry relative="1" as="geometry" />
        </mxCell>
        <mxCell id="sRZtuT86F7oAawYKFe2H-12" value="Process payment and display change" style="whiteSpace=wrap;html=1;fontFamily=Georgia;rounded=1;arcSize=18;fontStyle=0;" vertex="1" parent="2ucF-1oo7JGU_lj_R-2m-4">
          <mxGeometry x="380" y="50" width="120" height="60" as="geometry" />
        </mxCell>
        <mxCell id="sRZtuT86F7oAawYKFe2H-14" value="&amp;lt;&amp;lt;datastore&amp;gt;&amp;gt;&lt;br&gt;Payment" style="rounded=0;whiteSpace=wrap;html=1;" vertex="1" parent="2ucF-1oo7JGU_lj_R-2m-4">
          <mxGeometry x="180" y="50" width="120" height="60" as="geometry" />
        </mxCell>
        <mxCell id="sRZtuT86F7oAawYKFe2H-31" style="edgeStyle=orthogonalEdgeStyle;rounded=0;jumpStyle=arc;orthogonalLoop=1;jettySize=auto;html=1;entryX=0.5;entryY=1;entryDx=0;entryDy=0;dashed=1;dashPattern=1 1;" edge="1" parent="2ucF-1oo7JGU_lj_R-2m-4" source="sRZtuT86F7oAawYKFe2H-30" target="sRZtuT86F7oAawYKFe2H-14">
          <mxGeometry relative="1" as="geometry">
            <Array as="points">
              <mxPoint x="690" y="130" />
              <mxPoint x="240" y="130" />
            </Array>
          </mxGeometry>
        </mxCell>
        <mxCell id="sRZtuT86F7oAawYKFe2H-30" value="Processes payment and informs customer" style="rounded=1;whiteSpace=wrap;html=1;" vertex="1" parent="2ucF-1oo7JGU_lj_R-2m-4">
          <mxGeometry x="630" y="50" width="120" height="60" as="geometry" />
        </mxCell>
        <mxCell id="2ucF-1oo7JGU_lj_R-2m-8" value="" style="edgeStyle=orthogonalEdgeStyle;rounded=0;orthogonalLoop=1;jettySize=auto;html=1;fontFamily=Georgia;" parent="2ucF-1oo7JGU_lj_R-2m-1" source="2ucF-1oo7JGU_lj_R-2m-5" target="2ucF-1oo7JGU_lj_R-2m-7" edge="1">
          <mxGeometry relative="1" as="geometry" />
        </mxCell>
        <mxCell id="sRZtuT86F7oAawYKFe2H-9" value="" style="edgeStyle=orthogonalEdgeStyle;rounded=0;orthogonalLoop=1;jettySize=auto;html=1;" edge="1" parent="2ucF-1oo7JGU_lj_R-2m-1" source="sRZtuT86F7oAawYKFe2H-6" target="sRZtuT86F7oAawYKFe2H-8">
          <mxGeometry relative="1" as="geometry" />
        </mxCell>
        <mxCell id="sRZtuT86F7oAawYKFe2H-13" value="" style="edgeStyle=orthogonalEdgeStyle;rounded=0;orthogonalLoop=1;jettySize=auto;html=1;" edge="1" parent="2ucF-1oo7JGU_lj_R-2m-1" source="sRZtuT86F7oAawYKFe2H-10" target="sRZtuT86F7oAawYKFe2H-12">
          <mxGeometry relative="1" as="geometry" />
        </mxCell>
        <mxCell id="sRZtuT86F7oAawYKFe2H-18" value="" style="edgeStyle=orthogonalEdgeStyle;rounded=0;orthogonalLoop=1;jettySize=auto;html=1;" edge="1" parent="2ucF-1oo7JGU_lj_R-2m-1" source="sRZtuT86F7oAawYKFe2H-12" target="sRZtuT86F7oAawYKFe2H-17">
          <mxGeometry relative="1" as="geometry" />
        </mxCell>
        <mxCell id="sRZtuT86F7oAawYKFe2H-26" value="" style="edgeStyle=orthogonalEdgeStyle;rounded=0;orthogonalLoop=1;jettySize=auto;html=1;" edge="1" parent="2ucF-1oo7JGU_lj_R-2m-1" source="sRZtuT86F7oAawYKFe2H-19" target="sRZtuT86F7oAawYKFe2H-25">
          <mxGeometry relative="1" as="geometry" />
        </mxCell>
        <mxCell id="sRZtuT86F7oAawYKFe2H-28" style="edgeStyle=orthogonalEdgeStyle;rounded=0;orthogonalLoop=1;jettySize=auto;html=1;entryX=0.5;entryY=1;entryDx=0;entryDy=0;" edge="1" parent="2ucF-1oo7JGU_lj_R-2m-1" source="2ucF-1oo7JGU_lj_R-2m-7" target="2ucF-1oo7JGU_lj_R-2m-9">
          <mxGeometry relative="1" as="geometry" />
        </mxCell>
        <mxCell id="sRZtuT86F7oAawYKFe2H-29" style="edgeStyle=orthogonalEdgeStyle;rounded=0;orthogonalLoop=1;jettySize=auto;html=1;jumpStyle=arc;entryX=0.5;entryY=0;entryDx=0;entryDy=0;" edge="1" parent="2ucF-1oo7JGU_lj_R-2m-1" source="sRZtuT86F7oAawYKFe2H-4" target="sRZtuT86F7oAawYKFe2H-30">
          <mxGeometry relative="1" as="geometry">
            <mxPoint x="700" y="500" as="targetPoint" />
          </mxGeometry>
        </mxCell>
        <mxCell id="sRZtuT86F7oAawYKFe2H-34" style="edgeStyle=orthogonalEdgeStyle;rounded=0;jumpStyle=arc;orthogonalLoop=1;jettySize=auto;html=1;entryX=0.5;entryY=1;entryDx=0;entryDy=0;" edge="1" parent="2ucF-1oo7JGU_lj_R-2m-1" source="sRZtuT86F7oAawYKFe2H-30" target="sRZtuT86F7oAawYKFe2H-33">
          <mxGeometry relative="1" as="geometry" />
        </mxCell>
        <mxCell id="sRZtuT86F7oAawYKFe2H-16" style="edgeStyle=orthogonalEdgeStyle;rounded=0;orthogonalLoop=1;jettySize=auto;html=1;exitX=0;exitY=1;exitDx=0;exitDy=0;entryX=0.012;entryY=1;entryDx=0;entryDy=0;entryPerimeter=0;dashed=1;dashPattern=1 1;" edge="1" parent="1" source="2ucF-1oo7JGU_lj_R-2m-1" target="2ucF-1oo7JGU_lj_R-2m-1">
          <mxGeometry relative="1" as="geometry" />
        </mxCell>
      </root>
    </mxGraphModel>
  </diagram>
  <diagram name="Purchase Groceries (future)" id="FHfHBh0FdbHrW_b8PtVZ">
    <mxGraphModel dx="2773" dy="934" grid="1" gridSize="10" guides="1" tooltips="1" connect="1" arrows="1" fold="1" page="1" pageScale="1" pageWidth="1100" pageHeight="850" math="0" shadow="0">
      <root>
        <mxCell id="sJgWDWRG5COgwvUlYKcY-0" />
        <mxCell id="sJgWDWRG5COgwvUlYKcY-1" parent="sJgWDWRG5COgwvUlYKcY-0" />
        <mxCell id="sJgWDWRG5COgwvUlYKcY-2" style="edgeStyle=orthogonalEdgeStyle;rounded=0;orthogonalLoop=1;jettySize=auto;html=1;exitX=1;exitY=0.5;exitDx=0;exitDy=0;entryX=0;entryY=0.5;entryDx=0;entryDy=0;fontFamily=Times New Roman;fontSize=16;" edge="1" parent="sJgWDWRG5COgwvUlYKcY-1" source="sJgWDWRG5COgwvUlYKcY-3" target="sJgWDWRG5COgwvUlYKcY-15">
          <mxGeometry relative="1" as="geometry" />
        </mxCell>
        <mxCell id="sJgWDWRG5COgwvUlYKcY-3" value="" style="ellipse;fillColor=#000000;strokeColor=none;fontFamily=Times New Roman;fontSize=16;" vertex="1" parent="sJgWDWRG5COgwvUlYKcY-1">
          <mxGeometry x="-120.0028971962617" y="32.05267605633803" width="23.551401869158877" height="24.084507042253524" as="geometry" />
        </mxCell>
        <mxCell id="sJgWDWRG5COgwvUlYKcY-4" value="" style="ellipse;html=1;shape=endState;fillColor=strokeColor;fontFamily=Times New Roman;fontSize=16;rotation=-90;" vertex="1" parent="sJgWDWRG5COgwvUlYKcY-1">
          <mxGeometry x="1400.001495327103" y="146.19549295774658" width="23.551401869158877" height="24.084507042253524" as="geometry" />
        </mxCell>
        <mxCell id="sJgWDWRG5COgwvUlYKcY-5" style="edgeStyle=orthogonalEdgeStyle;rounded=0;orthogonalLoop=1;jettySize=auto;html=1;exitX=1;exitY=0.5;exitDx=0;exitDy=0;entryX=0.5;entryY=0;entryDx=0;entryDy=0;fontFamily=Times New Roman;fontSize=16;" edge="1" parent="sJgWDWRG5COgwvUlYKcY-1" source="sJgWDWRG5COgwvUlYKcY-27" target="sJgWDWRG5COgwvUlYKcY-4">
          <mxGeometry relative="1" as="geometry" />
        </mxCell>
        <mxCell id="sJgWDWRG5COgwvUlYKcY-6" value="Purchase Groceries" style="swimlane;childLayout=stackLayout;resizeParent=1;resizeParentMax=0;horizontal=0;startSize=20;horizontalStack=0;" vertex="1" parent="sJgWDWRG5COgwvUlYKcY-1">
          <mxGeometry x="-50" y="20" width="1480" height="739.72" as="geometry" />
        </mxCell>
        <mxCell id="sJgWDWRG5COgwvUlYKcY-7" value="Customer" style="swimlane;startSize=20;horizontal=0;" vertex="1" parent="sJgWDWRG5COgwvUlYKcY-6">
          <mxGeometry x="20" width="1460" height="230" as="geometry" />
        </mxCell>
        <mxCell id="sJgWDWRG5COgwvUlYKcY-8" value="" style="html=1;points=[[0,0.5,0,0,0],[1,0.33,0,0,0],[1,0.67,0,0,0]];perimeter=orthogonalPerimeter;fillColor=#000000;strokeColor=none;fontFamily=Times New Roman;fontSize=16;" vertex="1" parent="sJgWDWRG5COgwvUlYKcY-7">
          <mxGeometry x="590.003831775701" y="3.803098591549303" width="3.925233644859813" height="136.47887323943664" as="geometry" />
        </mxCell>
        <mxCell id="sJgWDWRG5COgwvUlYKcY-9" value="" style="html=1;perimeter=orthogonalPerimeter;fillColor=#000000;strokeColor=none;fontFamily=Times New Roman;fontSize=16;" vertex="1" parent="sJgWDWRG5COgwvUlYKcY-7">
          <mxGeometry x="970.0011214953271" y="0.0030985915493033644" width="3.925233644859813" height="136.47887323943664" as="geometry" />
        </mxCell>
        <mxCell id="sJgWDWRG5COgwvUlYKcY-10" value="Makes Payment" style="whiteSpace=wrap;html=1;rounded=1;fontSize=16;fillColor=#f8cecc;strokeColor=#b85450;fontFamily=Times New Roman;" vertex="1" parent="sJgWDWRG5COgwvUlYKcY-7">
          <mxGeometry x="710" y="48.18" width="110.01" height="58.17" as="geometry" />
        </mxCell>
        <mxCell id="sJgWDWRG5COgwvUlYKcY-11" style="edgeStyle=orthogonalEdgeStyle;rounded=0;orthogonalLoop=1;jettySize=auto;html=1;exitX=1;exitY=0.5;exitDx=0;exitDy=0;entryX=0;entryY=0.25;entryDx=0;entryDy=0;fontFamily=Times New Roman;fontSize=16;" edge="1" parent="sJgWDWRG5COgwvUlYKcY-7" source="sJgWDWRG5COgwvUlYKcY-10" target="sJgWDWRG5COgwvUlYKcY-9">
          <mxGeometry relative="1" as="geometry" />
        </mxCell>
        <mxCell id="sJgWDWRG5COgwvUlYKcY-12" style="edgeStyle=orthogonalEdgeStyle;rounded=0;orthogonalLoop=1;jettySize=auto;html=1;exitX=1;exitY=0.5;exitDx=0;exitDy=0;entryX=0;entryY=0.5;entryDx=0;entryDy=0;" edge="1" parent="sJgWDWRG5COgwvUlYKcY-7" source="sJgWDWRG5COgwvUlYKcY-13" target="sJgWDWRG5COgwvUlYKcY-27">
          <mxGeometry relative="1" as="geometry" />
        </mxCell>
        <mxCell id="sJgWDWRG5COgwvUlYKcY-13" value="" style="rhombus;whiteSpace=wrap;html=1;fontSize=16;fontFamily=Times New Roman;fillColor=#fff2cc;strokeColor=#d6b656;" vertex="1" parent="sJgWDWRG5COgwvUlYKcY-7">
          <mxGeometry x="1080.004859813084" y="28.100422535211237" width="78.50467289719626" height="80.28169014084507" as="geometry" />
        </mxCell>
        <mxCell id="sJgWDWRG5COgwvUlYKcY-14" value="" style="edgeStyle=orthogonalEdgeStyle;rounded=0;orthogonalLoop=1;jettySize=auto;html=1;entryX=0.5;entryY=0;entryDx=0;entryDy=0;" edge="1" parent="sJgWDWRG5COgwvUlYKcY-7" source="sJgWDWRG5COgwvUlYKcY-9" target="sJgWDWRG5COgwvUlYKcY-13">
          <mxGeometry relative="1" as="geometry">
            <Array as="points">
              <mxPoint x="1027" y="68" />
              <mxPoint x="1027" y="10" />
              <mxPoint x="1119" y="10" />
            </Array>
          </mxGeometry>
        </mxCell>
        <mxCell id="sJgWDWRG5COgwvUlYKcY-15" value="Enter Store" style="rounded=1;whiteSpace=wrap;html=1;fontSize=16;fillColor=#fff2cc;strokeColor=#d6b656;fontFamily=Times New Roman;" vertex="1" parent="sJgWDWRG5COgwvUlYKcY-7">
          <mxGeometry x="40" y="0.008028169014078657" width="94.2056074766355" height="48.16901408450705" as="geometry" />
        </mxCell>
        <mxCell id="sJgWDWRG5COgwvUlYKcY-16" value="Check for sufficient funds" style="whiteSpace=wrap;html=1;fontSize=16;fontFamily=Times New Roman;fillColor=#fff2cc;strokeColor=#d6b656;rounded=1;" vertex="1" parent="sJgWDWRG5COgwvUlYKcY-7">
          <mxGeometry x="30" y="88.31239436619717" width="94.2056074766355" height="48.16901408450705" as="geometry" />
        </mxCell>
        <mxCell id="sJgWDWRG5COgwvUlYKcY-17" value="" style="edgeStyle=orthogonalEdgeStyle;rounded=0;orthogonalLoop=1;jettySize=auto;html=1;fontFamily=Times New Roman;fontSize=16;exitX=0.5;exitY=1;exitDx=0;exitDy=0;" edge="1" parent="sJgWDWRG5COgwvUlYKcY-7" source="sJgWDWRG5COgwvUlYKcY-15" target="sJgWDWRG5COgwvUlYKcY-16">
          <mxGeometry relative="1" as="geometry" />
        </mxCell>
        <mxCell id="sJgWDWRG5COgwvUlYKcY-18" value="Sufficient Funds" style="rhombus;whiteSpace=wrap;html=1;fontSize=16;fontFamily=Times New Roman;fillColor=#fff2cc;strokeColor=#d6b656;rounded=1;arcSize=0;" vertex="1" parent="sJgWDWRG5COgwvUlYKcY-7">
          <mxGeometry x="149.99841121495325" y="72.25605633802816" width="78.50467289719626" height="80.28169014084507" as="geometry" />
        </mxCell>
        <mxCell id="sJgWDWRG5COgwvUlYKcY-19" value="" style="edgeStyle=orthogonalEdgeStyle;rounded=0;orthogonalLoop=1;jettySize=auto;html=1;fontFamily=Times New Roman;fontSize=16;" edge="1" parent="sJgWDWRG5COgwvUlYKcY-7" source="sJgWDWRG5COgwvUlYKcY-16" target="sJgWDWRG5COgwvUlYKcY-18">
          <mxGeometry relative="1" as="geometry" />
        </mxCell>
        <mxCell id="sJgWDWRG5COgwvUlYKcY-21" value="Get Scanner" style="whiteSpace=wrap;html=1;rounded=1;fontSize=16;fillColor=#fff2cc;strokeColor=#d6b656;fontFamily=Times New Roman;" vertex="1" parent="sJgWDWRG5COgwvUlYKcY-7">
          <mxGeometry x="287.09794392523366" y="89.31" width="94.2056074766355" height="48.16901408450705" as="geometry" />
        </mxCell>
        <mxCell id="sJgWDWRG5COgwvUlYKcY-22" value="Get Cart or Basket" style="whiteSpace=wrap;html=1;rounded=1;fontSize=16;fillColor=#fff2cc;strokeColor=#d6b656;fontFamily=Times New Roman;" vertex="1" parent="sJgWDWRG5COgwvUlYKcY-7">
          <mxGeometry x="239.99794392523364" y="1.8980281690140821" width="94.2056074766355" height="48.16901408450705" as="geometry" />
        </mxCell>
        <mxCell id="sJgWDWRG5COgwvUlYKcY-23" value="" style="edgeStyle=orthogonalEdgeStyle;rounded=0;orthogonalLoop=1;jettySize=auto;html=1;fontSize=16;fillColor=#fff2cc;strokeColor=#d6b656;fontFamily=Times New Roman;" edge="1" parent="sJgWDWRG5COgwvUlYKcY-7" source="sJgWDWRG5COgwvUlYKcY-22" target="sJgWDWRG5COgwvUlYKcY-21">
          <mxGeometry relative="1" as="geometry">
            <Array as="points">
              <mxPoint x="317" y="60" />
              <mxPoint x="360" y="60" />
            </Array>
          </mxGeometry>
        </mxCell>
        <mxCell id="sJgWDWRG5COgwvUlYKcY-24" value="[Yes]" style="edgeStyle=orthogonalEdgeStyle;rounded=0;orthogonalLoop=1;jettySize=auto;html=1;fontSize=16;fillColor=#fff2cc;strokeColor=#d6b656;fontFamily=Times New Roman;exitX=0.5;exitY=0;exitDx=0;exitDy=0;entryX=0;entryY=0.5;entryDx=0;entryDy=0;" edge="1" parent="sJgWDWRG5COgwvUlYKcY-7" source="sJgWDWRG5COgwvUlYKcY-18" target="sJgWDWRG5COgwvUlYKcY-22">
          <mxGeometry y="-20" relative="1" as="geometry">
            <Array as="points" />
            <mxPoint as="offset" />
          </mxGeometry>
        </mxCell>
        <mxCell id="sJgWDWRG5COgwvUlYKcY-25" value="" style="shape=sumEllipse;perimeter=ellipsePerimeter;whiteSpace=wrap;html=1;backgroundOutline=1;fontFamily=Times New Roman;fontSize=16;" vertex="1" parent="sJgWDWRG5COgwvUlYKcY-7">
          <mxGeometry x="248.995046728972" y="100.35126760563381" width="23.551401869158877" height="24.084507042253524" as="geometry" />
        </mxCell>
        <mxCell id="sJgWDWRG5COgwvUlYKcY-26" value="[No]" style="edgeStyle=orthogonalEdgeStyle;rounded=0;orthogonalLoop=1;jettySize=auto;html=1;exitX=1;exitY=0.5;exitDx=0;exitDy=0;fontFamily=Times New Roman;fontSize=16;" edge="1" parent="sJgWDWRG5COgwvUlYKcY-7" source="sJgWDWRG5COgwvUlYKcY-18" target="sJgWDWRG5COgwvUlYKcY-25">
          <mxGeometry x="-0.3333" y="-20" relative="1" as="geometry">
            <mxPoint as="offset" />
          </mxGeometry>
        </mxCell>
        <mxCell id="sJgWDWRG5COgwvUlYKcY-27" value="Exit Store" style="whiteSpace=wrap;html=1;rounded=1;fontSize=16;fillColor=#fff2cc;strokeColor=#d6b656;fontFamily=Times New Roman;" vertex="1" parent="sJgWDWRG5COgwvUlYKcY-7">
          <mxGeometry x="1190" y="50.07" width="68.97" height="36.34" as="geometry" />
        </mxCell>
        <mxCell id="sJgWDWRG5COgwvUlYKcY-28" value="# of items to purchase" style="rhombus;whiteSpace=wrap;html=1;fontSize=16;fontFamily=Times New Roman;fillColor=#fff2cc;strokeColor=#d6b656;rounded=1;arcSize=0;" vertex="1" parent="sJgWDWRG5COgwvUlYKcY-7">
          <mxGeometry x="460" y="58.17000000000001" width="110" height="90.28" as="geometry" />
        </mxCell>
        <mxCell id="sJgWDWRG5COgwvUlYKcY-29" style="edgeStyle=orthogonalEdgeStyle;rounded=0;orthogonalLoop=1;jettySize=auto;html=1;exitX=0.5;exitY=1;exitDx=0;exitDy=0;fontFamily=Times New Roman;fontSize=16;entryX=0;entryY=0.5;entryDx=0;entryDy=0;" edge="1" parent="sJgWDWRG5COgwvUlYKcY-7" source="sJgWDWRG5COgwvUlYKcY-28" target="sJgWDWRG5COgwvUlYKcY-13">
          <mxGeometry relative="1" as="geometry">
            <mxPoint x="852.8971962616822" y="222.25352112676057" as="targetPoint" />
            <Array as="points">
              <mxPoint x="515" y="160" />
              <mxPoint x="1060" y="160" />
              <mxPoint x="1060" y="68" />
            </Array>
          </mxGeometry>
        </mxCell>
        <mxCell id="sJgWDWRG5COgwvUlYKcY-30" value="[=0]" style="edgeLabel;html=1;align=center;verticalAlign=middle;resizable=0;points=[];fontSize=16;fontFamily=Times New Roman;" vertex="1" connectable="0" parent="sJgWDWRG5COgwvUlYKcY-29">
          <mxGeometry x="-0.8209" y="-1" relative="1" as="geometry">
            <mxPoint x="-23" y="9" as="offset" />
          </mxGeometry>
        </mxCell>
        <mxCell id="sJgWDWRG5COgwvUlYKcY-31" value="[&amp;gt;=1]" style="edgeStyle=orthogonalEdgeStyle;rounded=0;orthogonalLoop=1;jettySize=auto;html=1;exitX=0.5;exitY=0;exitDx=0;exitDy=0;entryX=0;entryY=0.5;entryDx=0;entryDy=0;entryPerimeter=0;" edge="1" parent="sJgWDWRG5COgwvUlYKcY-7" source="sJgWDWRG5COgwvUlYKcY-28" target="sJgWDWRG5COgwvUlYKcY-8">
          <mxGeometry x="-0.3878" y="20" relative="1" as="geometry">
            <Array as="points">
              <mxPoint x="515" y="30" />
              <mxPoint x="570" y="30" />
              <mxPoint x="570" y="72" />
            </Array>
            <mxPoint as="offset" />
          </mxGeometry>
        </mxCell>
        <mxCell id="coV3zzS0PFjkye8ppPFT-5" value="Collect and scanning item" style="whiteSpace=wrap;html=1;fontSize=16;fontFamily=Times New Roman;fillColor=#fff2cc;strokeColor=#d6b656;rounded=1;" vertex="1" parent="sJgWDWRG5COgwvUlYKcY-7">
          <mxGeometry x="360" y="170" width="100" height="50" as="geometry" />
        </mxCell>
        <mxCell id="sJgWDWRG5COgwvUlYKcY-32" value="Cashier" style="swimlane;startSize=20;horizontal=0;" vertex="1" parent="sJgWDWRG5COgwvUlYKcY-6">
          <mxGeometry x="20" y="230" width="1460" height="240.00000000000003" as="geometry" />
        </mxCell>
        <mxCell id="coV3zzS0PFjkye8ppPFT-11" value="Verify Items" style="rounded=1;whiteSpace=wrap;html=1;fillColor=#fff2cc;strokeColor=#d6b656;fontSize=16;fontFamily=Times New Roman;" vertex="1" parent="sJgWDWRG5COgwvUlYKcY-32">
          <mxGeometry x="705" y="90" width="120" height="60" as="geometry" />
        </mxCell>
        <mxCell id="coV3zzS0PFjkye8ppPFT-0" value="POS System" style="swimlane;startSize=20;horizontal=0;" vertex="1" parent="sJgWDWRG5COgwvUlYKcY-6">
          <mxGeometry x="20" y="470" width="1460" height="149.72000000000003" as="geometry" />
        </mxCell>
        <mxCell id="coV3zzS0PFjkye8ppPFT-3" value="Start sale" style="whiteSpace=wrap;html=1;fontSize=16;fontFamily=Times New Roman;fillColor=#fff2cc;strokeColor=#d6b656;rounded=1;" vertex="1" parent="coV3zzS0PFjkye8ppPFT-0">
          <mxGeometry x="270" y="40" width="102.9" height="49.72" as="geometry" />
        </mxCell>
        <mxCell id="coV3zzS0PFjkye8ppPFT-7" value="Add item to sale" style="whiteSpace=wrap;html=1;fontSize=16;fontFamily=Times New Roman;fillColor=#fff2cc;strokeColor=#d6b656;rounded=1;" vertex="1" parent="coV3zzS0PFjkye8ppPFT-0">
          <mxGeometry x="470" y="60" width="100" height="44.86" as="geometry" />
        </mxCell>
        <mxCell id="sJgWDWRG5COgwvUlYKcY-47" value="Bagger" style="swimlane;startSize=20;horizontal=0;" vertex="1" parent="sJgWDWRG5COgwvUlYKcY-6">
          <mxGeometry x="20" y="619.72" width="1460" height="120" as="geometry" />
        </mxCell>
        <mxCell id="sJgWDWRG5COgwvUlYKcY-48" value="Bag Items" style="rounded=1;whiteSpace=wrap;html=1;fontFamily=Times New Roman;fontSize=16;fillColor=#dae8fc;strokeColor=#6c8ebf;" vertex="1" parent="sJgWDWRG5COgwvUlYKcY-47">
          <mxGeometry x="709.9999065420561" y="35.91239436619716" width="94.2056074766355" height="48.16901408450705" as="geometry" />
        </mxCell>
        <mxCell id="sJgWDWRG5COgwvUlYKcY-49" style="edgeStyle=orthogonalEdgeStyle;rounded=0;orthogonalLoop=1;jettySize=auto;html=1;exitX=1;exitY=0.5;exitDx=0;exitDy=0;entryX=0;entryY=0.676;entryDx=0;entryDy=0;fontFamily=Times New Roman;fontSize=16;entryPerimeter=0;" edge="1" parent="sJgWDWRG5COgwvUlYKcY-6" source="sJgWDWRG5COgwvUlYKcY-48" target="sJgWDWRG5COgwvUlYKcY-9">
          <mxGeometry relative="1" as="geometry">
            <Array as="points">
              <mxPoint x="950" y="480" />
              <mxPoint x="950" y="92" />
            </Array>
          </mxGeometry>
        </mxCell>
        <mxCell id="sJgWDWRG5COgwvUlYKcY-50" value="" style="edgeStyle=orthogonalEdgeStyle;rounded=0;orthogonalLoop=1;jettySize=auto;html=1;fontSize=16;fillColor=#fff2cc;strokeColor=#000000;fontFamily=Times New Roman;exitX=1;exitY=0.5;exitDx=0;exitDy=0;" edge="1" parent="sJgWDWRG5COgwvUlYKcY-6" source="coV3zzS0PFjkye8ppPFT-11" target="sJgWDWRG5COgwvUlYKcY-10">
          <mxGeometry relative="1" as="geometry">
            <Array as="points">
              <mxPoint x="890" y="350" />
              <mxPoint x="890" y="170" />
              <mxPoint x="785" y="170" />
            </Array>
            <mxPoint x="890" y="390" as="sourcePoint" />
          </mxGeometry>
        </mxCell>
        <mxCell id="sJgWDWRG5COgwvUlYKcY-51" style="edgeStyle=orthogonalEdgeStyle;rounded=0;orthogonalLoop=1;jettySize=auto;html=1;exitX=1;exitY=0.33;exitDx=0;exitDy=0;exitPerimeter=0;entryX=0.25;entryY=0;entryDx=0;entryDy=0;" edge="1" parent="sJgWDWRG5COgwvUlYKcY-6" source="sJgWDWRG5COgwvUlYKcY-8" target="coV3zzS0PFjkye8ppPFT-11">
          <mxGeometry relative="1" as="geometry">
            <mxPoint x="710" y="230" as="targetPoint" />
            <Array as="points">
              <mxPoint x="680" y="49" />
              <mxPoint x="680" y="320" />
            </Array>
          </mxGeometry>
        </mxCell>
        <mxCell id="sJgWDWRG5COgwvUlYKcY-52" style="edgeStyle=orthogonalEdgeStyle;rounded=0;orthogonalLoop=1;jettySize=auto;html=1;exitX=1;exitY=0.67;exitDx=0;exitDy=0;exitPerimeter=0;entryX=0;entryY=0.5;entryDx=0;entryDy=0;" edge="1" parent="sJgWDWRG5COgwvUlYKcY-6" source="sJgWDWRG5COgwvUlYKcY-8" target="sJgWDWRG5COgwvUlYKcY-48">
          <mxGeometry relative="1" as="geometry">
            <Array as="points">
              <mxPoint x="630" y="95" />
              <mxPoint x="630" y="480" />
            </Array>
          </mxGeometry>
        </mxCell>
        <mxCell id="coV3zzS0PFjkye8ppPFT-4" value="" style="edgeStyle=orthogonalEdgeStyle;rounded=0;jumpStyle=arc;orthogonalLoop=1;jettySize=auto;html=1;" edge="1" parent="sJgWDWRG5COgwvUlYKcY-6" source="sJgWDWRG5COgwvUlYKcY-21" target="coV3zzS0PFjkye8ppPFT-3">
          <mxGeometry relative="1" as="geometry" />
        </mxCell>
        <mxCell id="coV3zzS0PFjkye8ppPFT-6" value="" style="edgeStyle=orthogonalEdgeStyle;rounded=0;jumpStyle=arc;orthogonalLoop=1;jettySize=auto;html=1;entryX=0.5;entryY=1;entryDx=0;entryDy=0;" edge="1" parent="sJgWDWRG5COgwvUlYKcY-6" source="coV3zzS0PFjkye8ppPFT-3" target="coV3zzS0PFjkye8ppPFT-5">
          <mxGeometry relative="1" as="geometry">
            <Array as="points">
              <mxPoint x="430" y="530" />
            </Array>
          </mxGeometry>
        </mxCell>
        <mxCell id="coV3zzS0PFjkye8ppPFT-8" value="" style="edgeStyle=orthogonalEdgeStyle;rounded=0;jumpStyle=arc;orthogonalLoop=1;jettySize=auto;html=1;exitX=1;exitY=1;exitDx=0;exitDy=0;" edge="1" parent="sJgWDWRG5COgwvUlYKcY-6" source="coV3zzS0PFjkye8ppPFT-5" target="coV3zzS0PFjkye8ppPFT-7">
          <mxGeometry relative="1" as="geometry">
            <Array as="points">
              <mxPoint x="480" y="375" />
              <mxPoint x="500" y="375" />
            </Array>
          </mxGeometry>
        </mxCell>
        <mxCell id="coV3zzS0PFjkye8ppPFT-9" style="edgeStyle=orthogonalEdgeStyle;rounded=0;jumpStyle=arc;orthogonalLoop=1;jettySize=auto;html=1;exitX=0.75;exitY=0;exitDx=0;exitDy=0;entryX=0;entryY=0.5;entryDx=0;entryDy=0;" edge="1" parent="sJgWDWRG5COgwvUlYKcY-6" source="coV3zzS0PFjkye8ppPFT-7" target="sJgWDWRG5COgwvUlYKcY-28">
          <mxGeometry relative="1" as="geometry">
            <Array as="points">
              <mxPoint x="565" y="339" />
              <mxPoint x="510" y="339" />
              <mxPoint x="510" y="160" />
              <mxPoint x="460" y="160" />
              <mxPoint x="460" y="103" />
            </Array>
          </mxGeometry>
        </mxCell>
      </root>
    </mxGraphModel>
  </diagram>
  <diagram id="zLJhYSMSOKKHYvVAoCan" name="Page-4">
    <mxGraphModel dx="1422" dy="794" grid="1" gridSize="10" guides="1" tooltips="1" connect="1" arrows="1" fold="1" page="1" pageScale="1" pageWidth="1100" pageHeight="850" math="0" shadow="0">
      <root>
        <mxCell id="0" />
        <mxCell id="1" parent="0" />
      </root>
    </mxGraphModel>
  </diagram>
</mxfile>
